<svg width="191" height="20" viewBox="0 0 191 20" fill="none" xmlns="http://www.w3.org/2000/svg">
<g id="Mercadona IT-Verde 2" clip-path="url(#clip0_121_30298)">
<g id="Group">
<path id="Vector" d="M156.315 8.01648H156.35L157.777 12.0531H154.923L156.315 8.01648ZM82.6465 8.01648H82.6813L84.1081 12.0531H81.2546L82.6465 8.01648ZM98.4103 6.52015H99.4542C101.612 6.52015 102.656 8.12088 102.656 10C102.656 11.8443 101.612 13.4799 99.4542 13.4799H98.4103V6.52015ZM115.74 10C115.74 7.84249 117.271 6.24176 119.394 6.24176C121.517 6.24176 123.048 7.84249 123.048 10C123.048 12.1923 121.517 13.7582 119.394 13.7582C117.306 13.7582 115.74 12.1923 115.74 10ZM46.0037 5.99817H47.5348C48.6832 5.99817 49.1007 6.83333 49.1007 7.5293C49.1007 8.19048 48.6832 9.06044 47.5348 9.06044H46.0037V5.99817ZM92.5641 16.2289C92.5641 17.9341 93.7473 19.1172 95.4524 19.1172H97.6447C100.777 19.1172 103.56 18.6996 105.753 16.7161C107.632 15.0458 108.711 12.6447 108.711 10C108.711 7.35531 107.632 4.95421 105.753 3.28388C103.56 1.30037 100.777 0.882784 97.6447 0.882784H95.4524C93.7473 0.882784 92.5641 2.03114 92.5641 3.77106V16.2289ZM40.1575 16.4029C40.1575 18.1081 41.3755 19.326 43.0806 19.326C44.7857 19.326 46.0037 18.1081 46.0037 16.4029V13.2711H46.0385L49.9011 18.0037C50.3187 18.5256 51.1191 19.326 52.4066 19.326C54.0073 19.326 55.2949 18.1777 55.2949 16.5073C55.2949 15.5678 54.8425 14.9066 54.3553 14.315L52.6502 12.4011C54.0073 11.3571 54.9817 9.65201 54.9817 7.42491C54.9817 4.64103 53.555 2.51832 51.1887 1.50916C49.9707 0.98718 48.6832 0.882784 46.6648 0.882784H43.1502C41.3755 0.882784 40.1575 2.10073 40.1575 3.87546V16.4029ZM24.881 16.2289C24.881 17.9341 26.0641 19.1172 27.7692 19.1172H36.2253C37.7564 19.1172 38.8352 18.0037 38.8352 16.5073C38.8352 14.9762 37.7216 13.8974 36.2253 13.8974H30.7967V12.4707H35.2857C36.7125 12.4707 37.7216 11.4267 37.7216 10.0348C37.7216 8.64286 36.7125 7.5989 35.2857 7.5989H30.7967V6.17216H36.0165C37.5476 6.17216 38.6264 5.05861 38.6264 3.56227C38.6264 2.06593 37.5128 0.952381 36.0165 0.952381H27.7692C26.0641 0.952381 24.881 2.10073 24.881 3.84066V16.2289ZM147.372 16.4725C147.372 18.0733 148.659 19.326 150.26 19.326C151.826 19.326 152.766 18.2473 153.009 17.4817L153.288 16.6465H159.412L159.69 17.4817C159.934 18.2473 160.874 19.326 162.44 19.326C164.04 19.326 165.328 18.0037 165.328 16.4377C165.328 15.8114 165.119 15.3242 164.736 14.4194L160.421 4.08425C159.482 1.89194 158.473 0.708791 156.35 0.708791C154.227 0.708791 153.218 1.92674 152.278 4.08425L147.963 14.4194C147.65 15.2198 147.372 15.8114 147.372 16.4725ZM130.321 16.4029C130.321 18.1081 131.538 19.326 133.244 19.326C134.949 19.326 136.167 18.1081 136.167 16.4029V11.1136H136.201L140.273 17.2033C141.178 18.5604 142.048 19.2912 143.544 19.2912C145.284 19.2912 146.537 18.0733 146.537 16.2985V3.59707C146.537 1.89194 145.319 0.673993 143.614 0.673993C141.908 0.673993 140.69 1.89194 140.69 3.59707V8.85165H140.656L136.584 2.7967C135.68 1.43956 134.81 0.708791 133.313 0.708791C131.573 0.708791 130.321 1.92674 130.321 3.70147V16.4029ZM73.7033 16.4725C73.7033 18.0733 74.9909 19.326 76.5916 19.326C78.1575 19.326 79.0971 18.2473 79.3407 17.4817L79.6191 16.6465H85.7436L86.022 17.4817C86.2656 18.2473 87.2051 19.326 88.7711 19.326C90.3718 19.326 91.6593 18.0037 91.6593 16.4377C91.6593 15.8114 91.4506 15.3242 91.0678 14.4194L86.7528 4.08425C85.8132 1.89194 84.804 0.708791 82.6813 0.708791C80.5586 0.708791 79.5495 1.92674 78.6099 4.08425L74.2949 14.4194C73.9469 15.2198 73.7033 15.8114 73.7033 16.4725ZM0 16.3681C0 18.3169 1.42674 19.326 2.92308 19.326C4.48901 19.326 5.70696 18.2821 5.95055 16.2985L6.61172 10.9396H6.64652L8.45604 16.8553C8.97802 18.5952 10.2308 19.2912 11.6575 19.2912C13.0843 19.2912 14.337 18.5952 14.859 16.8553L16.7033 10.9396H16.7381L17.3993 16.2985C17.6429 18.3169 18.8608 19.326 20.4267 19.326C21.9579 19.326 23.3498 18.3169 23.3498 16.3681C23.3498 16.1941 23.315 15.9158 23.315 15.7418L21.4011 3.97985C21.0531 1.89194 19.7656 0.708791 17.7821 0.708791C15.8681 0.708791 14.6154 1.78755 13.989 3.77106L11.7271 11.0788H11.6923L9.39561 3.73626C8.76923 1.75275 7.51648 0.673993 5.60256 0.673993C3.61905 0.673993 2.2967 1.89194 1.98352 3.97985L0.0347985 15.707C0.0347985 15.9158 0 16.1941 0 16.3681ZM109.755 10C109.755 15.359 113.965 19.5 119.429 19.5C124.892 19.5 129.103 15.359 129.103 10C129.103 4.64103 124.892 0.5 119.429 0.5C113.965 0.5 109.755 4.64103 109.755 10ZM56.0256 10C56.0256 15.533 60.0623 19.5 65.4212 19.5C68.2051 19.5 70.8846 18.456 72.381 16.5073C72.9725 15.7766 73.2509 15.0458 73.2509 14.2106C73.2509 12.5055 71.9286 11.3571 70.3974 11.3571C68.1007 11.3571 68.0659 13.5495 65.4212 13.5495C63.6465 13.5495 62.0458 12.3315 62.0458 10C62.0806 7.6685 63.6465 6.45055 65.4212 6.45055C68.0659 6.45055 68.1007 8.64286 70.3974 8.64286C71.9286 8.64286 73.2509 7.49451 73.2509 5.78938C73.2509 4.95421 72.9725 4.18864 72.381 3.49267C70.9194 1.54396 68.2051 0.5 65.4212 0.5C60.0623 0.5 56.0256 4.46703 56.0256 10Z" fill="#009A47"/>
<g id="Group_2">
<path id="Vector_2" d="M175.454 0.882812C175.802 0.882812 175.976 1.02201 175.976 1.40479V18.5953C175.976 18.9433 175.837 19.1172 175.454 19.1172H173.401C173.053 19.1172 172.879 18.9781 172.879 18.5953V1.40479C172.879 1.05681 173.018 0.882812 173.401 0.882812H175.454Z" fill="#009A47"/>
<path id="Vector_3" d="M189.826 0.882812C190.174 0.882812 190.348 1.02201 190.348 1.40479V3.04032C190.348 3.38831 190.209 3.5623 189.826 3.5623H185.755V18.5953C185.755 18.9433 185.615 19.1172 185.233 19.1172H183.18C182.832 19.1172 182.658 18.9781 182.658 18.5953V3.5623H178.586C178.238 3.5623 178.064 3.42311 178.064 3.04032V1.40479C178.064 1.05681 178.203 0.882812 178.586 0.882812H189.826Z" fill="#009A47"/>
</g>
</g>
</g>
<defs>
<clipPath id="clip0_121_30298">
<rect width="190.313" height="19" fill="white" transform="translate(0 0.5)"/>
</clipPath>
</defs>
</svg>
